# xmcd
#
# Track frame offsets: 
#        150
#        17894
#        41907
#        66352
#        85641
#        101262
#        121487
#        138773
#        159904
#        183605
#
# Disc length: 2786 seconds
#
# Revision: 0
# Processed by: cddbd v1.5.2PL0 Copyright (c) Steve Scherf et al.
# Submitted via: ExactAudioCopy v1.0b3
#
DISCID=7e0ae00a
DTITLE=Various Artist - Di Choi Chua Huong
DYEAR=1993
DGENRE=
TTITLE0=Trang Thanh Lan - Em di chua Huong
TTITLE1=Phuong Mai - Mong cho
TTITLE2=Duy Khanh - Tat nuoc dau dinh
TTITLE3=Thien Trang - Hoi Hue co thuong khong
TTITLE4=Son Ca, Phuong Vu - Vuon dau la moi
TTITLE5=Phuong Hong Que - Ly chim quyen
TTITLE6=Son Ca - Trong com
TTITLE7=Phuong Mai, Phuong Vu - Ly ngua o
TTITLE8=Duy Khanh - Tieng chuong Linh Mu
TTITLE9=Son Ca, Phuong Vu - Khuc giao duyen
EXTD=
EXTT0=
EXTT1=
EXTT2=
EXTT3=
EXTT4=
EXTT5=
EXTT6=
EXTT7=
EXTT8=
EXTT9=
PLAYORDER=
